<svg width="82" height="36" viewBox="0 0 82 36" fill="none" xmlns="http://www.w3.org/2000/svg">
<mask id="path-1-inside-1_150_21" fill="white">
<path d="M0 18C0 8.05887 8.05887 0 18 0L64 0C73.9411 0 82 8.05887 82 18V18C82 27.9411 73.9411 36 64 36L18 36C8.05888 36 0 27.9411 0 18V18Z"/>
</mask>
<path d="M0 18C0 8.05887 8.05887 0 18 0L64 0C73.9411 0 82 8.05887 82 18V18C82 27.9411 73.9411 36 64 36L18 36C8.05888 36 0 27.9411 0 18V18Z" fill="#D8F382"/>
<path d="M0 18M82 18M82 18M0 18M18 0V2.5L64 2.5V0V-2.5L18 -2.5V0ZM82 18M64 36V33.5H18V36V38.5H64V36ZM0 18M18 36V33.5C9.43959 33.5 2.5 26.5604 2.5 18H0H-2.5C-2.5 29.3218 6.67817 38.5 18 38.5V36ZM82 18H79.5C79.5 26.5604 72.5604 33.5 64 33.5V36V38.5C75.3218 38.5 84.5 29.3218 84.5 18H82ZM64 0V2.5C72.5604 2.5 79.5 9.43959 79.5 18H82H84.5C84.5 6.67816 75.3218 -2.5 64 -2.5V0ZM18 0V-2.5C6.67816 -2.5 -2.5 6.67816 -2.5 18H0H2.5C2.5 9.43959 9.43959 2.5 18 2.5V0Z" fill="#1C1C1C" mask="url(#path-1-inside-1_150_21)"/>
<path d="M21.7299 12.42H23.8755L25.5171 22.5H23.9331L23.6451 20.4984V20.5272H21.8451L21.5571 22.5H20.0883L21.7299 12.42ZM23.4579 19.1592L22.7523 14.1768H22.7235L22.0323 19.1592H23.4579ZM28.5039 22.644C27.7359 22.644 27.1503 22.428 26.7471 21.996C26.3439 21.5544 26.1423 20.9256 26.1423 20.1096V14.8104C26.1423 13.9944 26.3439 13.3704 26.7471 12.9384C27.1503 12.4968 27.7359 12.276 28.5039 12.276C29.2719 12.276 29.8575 12.4968 30.2607 12.9384C30.6639 13.3704 30.8655 13.9944 30.8655 14.8104V15.6744H29.3679V14.7096C29.3679 14.0472 29.0943 13.716 28.5471 13.716C27.9999 13.716 27.7263 14.0472 27.7263 14.7096V20.2248C27.7263 20.8776 27.9999 21.204 28.5471 21.204C29.0943 21.204 29.3679 20.8776 29.3679 20.2248V18.252H28.5759V16.812H30.8655V20.1096C30.8655 20.9256 30.6639 21.5544 30.2607 21.996C29.8575 22.428 29.2719 22.644 28.5039 22.644ZM31.8825 12.42L36.2025 12.42V13.86H33.4665V16.524H35.6409V17.964H33.4665V21.06L36.2025 21.06V22.5L31.8825 22.5V12.42ZM37.1137 12.42H39.1009L40.6417 18.4536H40.6705V12.42H42.0817V22.5H40.4545L38.5537 15.1416H38.5249V22.5H37.1137V12.42ZM45.491 22.644C44.7326 22.644 44.1518 22.428 43.7486 21.996C43.355 21.564 43.1582 20.9544 43.1582 20.1672V14.7528C43.1582 13.9656 43.355 13.356 43.7486 12.924C44.1518 12.492 44.7326 12.276 45.491 12.276C46.2494 12.276 46.8254 12.492 47.219 12.924C47.6222 13.356 47.8238 13.9656 47.8238 14.7528V15.8184H46.3262V14.652C46.3262 14.028 46.0622 13.716 45.5342 13.716C45.0062 13.716 44.7422 14.028 44.7422 14.652V20.2824C44.7422 20.8968 45.0062 21.204 45.5342 21.204C46.0622 21.204 46.3262 20.8968 46.3262 20.2824V18.7416H47.8238V20.1672C47.8238 20.9544 47.6222 21.564 47.219 21.996C46.8254 22.428 46.2494 22.644 45.491 22.644ZM48.7715 12.42H50.3555V22.5H48.7715V12.42ZM52.7659 12.42H54.9115L56.5531 22.5H54.9691L54.6811 20.4984V20.5272H52.8811L52.5931 22.5H51.1243L52.7659 12.42ZM54.4939 19.1592L53.7883 14.1768H53.7595L53.0683 19.1592H54.4939ZM59.3386 22.644C58.5706 22.644 57.9898 22.428 57.5962 21.996C57.2026 21.5544 57.0058 20.9256 57.0058 20.1096V19.5336H58.5034V20.2248C58.5034 20.8776 58.777 21.204 59.3242 21.204C59.593 21.204 59.7946 21.1272 59.929 20.9736C60.073 20.8104 60.145 20.5512 60.145 20.196C60.145 19.7736 60.049 19.404 59.857 19.0872C59.665 18.7608 59.3098 18.372 58.7914 17.9208C58.1386 17.3448 57.6826 16.8264 57.4234 16.3656C57.1642 15.8952 57.0346 15.3672 57.0346 14.7816C57.0346 13.9848 57.2362 13.3704 57.6394 12.9384C58.0426 12.4968 58.6282 12.276 59.3962 12.276C60.1546 12.276 60.7258 12.4968 61.1098 12.9384C61.5034 13.3704 61.7002 13.9944 61.7002 14.8104V15.228H60.2026V14.7096C60.2026 14.364 60.1354 14.1144 60.001 13.9608C59.8666 13.7976 59.6698 13.716 59.4106 13.716C58.8826 13.716 58.6186 14.0376 58.6186 14.6808C58.6186 15.0456 58.7146 15.3864 58.9066 15.7032C59.1082 16.02 59.4682 16.404 59.9866 16.8552C60.649 17.4312 61.105 17.9544 61.3546 18.4248C61.6042 18.8952 61.729 19.4472 61.729 20.0808C61.729 20.9064 61.5226 21.54 61.1098 21.9816C60.7066 22.4232 60.1162 22.644 59.3386 22.644Z" fill="#1C1C1C"/>
</svg>
