<svg width="132" height="46" viewBox="0 0 132 46" fill="none" xmlns="http://www.w3.org/2000/svg">
<mask id="path-1-inside-1_150_32" fill="white">
<path d="M0 22.618C0 10.1264 10.1264 0 22.618 0H108.656C121.148 0 131.274 10.1264 131.274 22.618V22.618C131.274 35.1095 121.148 45.236 108.656 45.236H22.618C10.1264 45.236 0 35.1095 0 22.618V22.618Z"/>
</mask>
<path d="M0 22.618C0 10.1264 10.1264 0 22.618 0H108.656C121.148 0 131.274 10.1264 131.274 22.618V22.618C131.274 35.1095 121.148 45.236 108.656 45.236H22.618C10.1264 45.236 0 35.1095 0 22.618V22.618Z" fill="#FF99DC"/>
<path d="M0 22.618M131.274 22.618M131.274 22.618M0 22.618M22.618 0V2.12044H108.656V0V-2.12044H22.618V0ZM131.274 22.618M108.656 45.236V43.1155H22.618V45.236V47.3564H108.656V45.236ZM0 22.618M22.618 45.236V43.1155C11.2975 43.1155 2.12044 33.9385 2.12044 22.618H0H-2.12044C-2.12044 36.2806 8.95534 47.3564 22.618 47.3564V45.236ZM131.274 22.618H129.154C129.154 33.9385 119.977 43.1155 108.656 43.1155V45.236V47.3564C122.319 47.3564 133.395 36.2806 133.395 22.618H131.274ZM108.656 0V2.12044C119.977 2.12044 129.154 11.2975 129.154 22.618H131.274H133.395C133.395 8.95533 122.319 -2.12044 108.656 -2.12044V0ZM22.618 0V-2.12044C8.95533 -2.12044 -2.12044 8.95533 -2.12044 22.618H0H2.12044C2.12044 11.2975 11.2975 2.12044 22.618 2.12044V0Z" fill="black" mask="url(#path-1-inside-1_150_32)"/>
<path d="M25.4338 15.4176H30.3702V17.1139H27.2998V20.4218H29.7086V22.1181H27.2998V27.292H25.4338V15.4176ZM32.4954 15.4176H35.2604C36.2217 15.4176 36.9229 15.6437 37.3639 16.0961C37.805 16.5371 38.0255 17.2213 38.0255 18.1487V18.8781C38.0255 20.1108 37.6184 20.8911 36.8041 21.2191V21.253C37.2565 21.3887 37.5731 21.6658 37.7541 22.0842C37.9463 22.5026 38.0425 23.0624 38.0425 23.7636V25.8501C38.0425 26.1894 38.0538 26.4664 38.0764 26.6813C38.099 26.8849 38.1555 27.0884 38.246 27.292H36.3461C36.2783 27.0997 36.233 26.9188 36.2104 26.7492C36.1878 26.5795 36.1765 26.2742 36.1765 25.8331V23.6618C36.1765 23.119 36.086 22.7401 35.9051 22.5253C35.7354 22.3104 35.4357 22.2029 35.006 22.2029H34.3614V27.292H32.4954V15.4176ZM35.0399 20.5066C35.4131 20.5066 35.6902 20.4105 35.8711 20.2182C36.0634 20.026 36.1595 19.7037 36.1595 19.2513V18.3353C36.1595 17.9055 36.0803 17.5945 35.922 17.4023C35.775 17.21 35.5375 17.1139 35.2096 17.1139H34.3614V20.5066H35.0399ZM40.5675 15.4176H45.6566V17.1139H42.4335V20.2521H44.995V21.9485H42.4335V25.5956H45.6566V27.292H40.5675V15.4176ZM47.9605 15.4176H53.0495V17.1139H49.8264V20.2521H52.3879V21.9485H49.8264V25.5956H53.0495V27.292H47.9605V15.4176ZM55.3534 15.4176H57.2194V25.5956H60.2898V27.292H55.3534V15.4176ZM63.9232 15.4176H66.4507L68.3846 27.292H66.5186L66.1793 24.9341V24.968H64.0589L63.7196 27.292H61.9893L63.9232 15.4176ZM65.9588 23.3565L65.1276 17.4871H65.0937L64.2794 23.3565H65.9588ZM70.5203 15.4176H72.8612L74.6763 22.5253H74.7103V15.4176H76.3727V27.292H74.4558L72.2166 18.6237H72.1827V27.292H70.5203V15.4176ZM81.6193 27.4616C80.7259 27.4616 80.0417 27.2072 79.5668 26.6983C79.1031 26.1894 78.8713 25.4712 78.8713 24.5439V18.1656C78.8713 17.2383 79.1031 16.5202 79.5668 16.0113C80.0417 15.5024 80.7259 15.2479 81.6193 15.2479C82.5127 15.2479 83.1913 15.5024 83.655 16.0113C84.1299 16.5202 84.3674 17.2383 84.3674 18.1656V19.4209H82.6032V18.0469C82.6032 17.3118 82.2922 16.9443 81.6702 16.9443C81.0482 16.9443 80.7372 17.3118 80.7372 18.0469V24.6796C80.7372 25.4034 81.0482 25.7653 81.6702 25.7653C82.2922 25.7653 82.6032 25.4034 82.6032 24.6796V22.8645H84.3674V24.5439C84.3674 25.4712 84.1299 26.1894 83.655 26.6983C83.1913 27.2072 82.5127 27.4616 81.6193 27.4616ZM86.7142 15.4176H91.8033V17.1139H88.5802V20.2521H91.1417V21.9485H88.5802V25.5956H91.8033V27.292H86.7142V15.4176ZM94.1072 15.4176H96.8722C97.8335 15.4176 98.5346 15.6437 98.9757 16.0961C99.4167 16.5371 99.6373 17.2213 99.6373 18.1487V18.8781C99.6373 20.1108 99.2301 20.8911 98.4159 21.2191V21.253C98.8683 21.3887 99.1849 21.6658 99.3659 22.0842C99.5581 22.5026 99.6542 23.0624 99.6542 23.7636V25.8501C99.6542 26.1894 99.6655 26.4664 99.6882 26.6813C99.7108 26.8849 99.7673 27.0884 99.8578 27.292H97.9579C97.89 27.0997 97.8448 26.9188 97.8222 26.7492C97.7996 26.5795 97.7883 26.2742 97.7883 25.8331V23.6618C97.7883 23.119 97.6978 22.7401 97.5168 22.5253C97.3472 22.3104 97.0475 22.2029 96.6178 22.2029H95.9732V27.292H94.1072V15.4176ZM96.6517 20.5066C97.0249 20.5066 97.302 20.4105 97.4829 20.2182C97.6752 20.026 97.7713 19.7037 97.7713 19.2513V18.3353C97.7713 17.9055 97.6921 17.5945 97.5338 17.4023C97.3868 17.21 97.1493 17.1139 96.8213 17.1139H95.9732V20.5066H96.6517ZM104.605 27.4616C103.7 27.4616 103.016 27.2072 102.553 26.6983C102.089 26.1781 101.857 25.4373 101.857 24.4761V23.7975H103.621V24.6118C103.621 25.3808 103.944 25.7653 104.588 25.7653C104.905 25.7653 105.142 25.6748 105.301 25.4939C105.47 25.3016 105.555 24.9963 105.555 24.5778C105.555 24.0802 105.442 23.6448 105.216 23.2716C104.99 22.8871 104.571 22.4291 103.96 21.8976C103.191 21.2191 102.654 20.6084 102.349 20.0655C102.044 19.5114 101.891 18.8894 101.891 18.1996C101.891 17.2609 102.128 16.5371 102.603 16.0282C103.078 15.508 103.768 15.2479 104.673 15.2479C105.566 15.2479 106.239 15.508 106.692 16.0282C107.155 16.5371 107.387 17.2722 107.387 18.2335V18.7254H105.623V18.1147C105.623 17.7076 105.544 17.4136 105.385 17.2326C105.227 17.0404 104.995 16.9443 104.69 16.9443C104.068 16.9443 103.757 17.3231 103.757 18.0808C103.757 18.5106 103.87 18.912 104.096 19.2852C104.334 19.6584 104.758 20.1108 105.368 20.6423C106.149 21.3208 106.686 21.9372 106.98 22.4913C107.274 23.0455 107.421 23.6957 107.421 24.4421C107.421 25.4147 107.178 26.1611 106.692 26.6813C106.217 27.2015 105.521 27.4616 104.605 27.4616Z" fill="black"/>
</svg>
