<svg width="109" height="45" viewBox="0 0 109 45" fill="none" xmlns="http://www.w3.org/2000/svg">
<mask id="path-1-inside-1_150_34" fill="white">
<path d="M0 22.5C0 10.0736 10.0736 0 22.5 0H86.5C98.9264 0 109 10.0736 109 22.5V22.5C109 34.9264 98.9264 45 86.5 45H22.5C10.0736 45 0 34.9264 0 22.5V22.5Z"/>
</mask>
<path d="M0 22.5C0 10.0736 10.0736 0 22.5 0H86.5C98.9264 0 109 10.0736 109 22.5V22.5C109 34.9264 98.9264 45 86.5 45H22.5C10.0736 45 0 34.9264 0 22.5V22.5Z" fill="#FF99DC"/>
<path d="M0 22.5M109 22.5M109 22.5M0 22.5M22.5 0V2.12044H86.5V0V-2.12044H22.5V0ZM109 22.5M86.5 45V42.8796H22.5V45V47.1204H86.5V45ZM0 22.5M22.5 45V42.8796C11.2447 42.8796 2.12044 33.7553 2.12044 22.5H0H-2.12044C-2.12044 36.0975 8.90251 47.1204 22.5 47.1204V45ZM109 22.5H106.88C106.88 33.7553 97.7553 42.8796 86.5 42.8796V45V47.1204C100.097 47.1204 111.12 36.0975 111.12 22.5H109ZM86.5 0V2.12044C97.7553 2.12044 106.88 11.2447 106.88 22.5H109H111.12C111.12 8.90251 100.097 -2.12044 86.5 -2.12044V0ZM22.5 0V-2.12044C8.90251 -2.12044 -2.12044 8.90251 -2.12044 22.5H0H2.12044C2.12044 11.2447 11.2447 2.12044 22.5 2.12044V0Z" fill="black" mask="url(#path-1-inside-1_150_34)"/>
<path d="M25.4338 15.4176H28.2497C29.211 15.4176 29.9121 15.6437 30.3532 16.0961C30.7942 16.5372 31.0148 17.2214 31.0148 18.1487V18.6237C31.0148 19.2344 30.913 19.7319 30.7094 20.1165C30.5172 20.501 30.2175 20.778 29.8104 20.9477V20.9816C30.7377 21.2982 31.2014 22.1238 31.2014 23.4583V24.4761C31.2014 25.3921 30.9582 26.0933 30.4719 26.5795C29.997 27.0545 29.2958 27.292 28.3685 27.292H25.4338V15.4176ZM28.0292 20.2522C28.4024 20.2522 28.6795 20.156 28.8604 19.9638C29.0527 19.7715 29.1488 19.4492 29.1488 18.9969V18.3353C29.1488 17.9055 29.0696 17.5945 28.9113 17.4023C28.7643 17.21 28.5268 17.1139 28.1988 17.1139H27.2998V20.2522H28.0292ZM28.3685 25.5957C28.6964 25.5957 28.9396 25.5108 29.0979 25.3412C29.2562 25.1603 29.3354 24.8549 29.3354 24.4252V23.3904C29.3354 22.8476 29.2393 22.4744 29.047 22.2708C28.8661 22.0559 28.5607 21.9485 28.131 21.9485H27.2998V25.5957H28.3685ZM36.1518 27.4616C35.2584 27.4616 34.5742 27.2072 34.0992 26.6983C33.6356 26.1894 33.4037 25.4713 33.4037 24.5439V18.1657C33.4037 17.2383 33.6356 16.5202 34.0992 16.0113C34.5742 15.5024 35.2584 15.2479 36.1518 15.2479C37.0452 15.2479 37.7238 15.5024 38.1874 16.0113C38.6624 16.5202 38.8999 17.2383 38.8999 18.1657V19.421H37.1357V18.0469C37.1357 17.3118 36.8247 16.9443 36.2027 16.9443C35.5807 16.9443 35.2697 17.3118 35.2697 18.0469V24.6796C35.2697 25.4034 35.5807 25.7653 36.2027 25.7653C36.8247 25.7653 37.1357 25.4034 37.1357 24.6796V22.8645H38.8999V24.5439C38.8999 25.4713 38.6624 26.1894 38.1874 26.6983C37.7238 27.2072 37.0452 27.4616 36.1518 27.4616ZM41.2467 15.4176H43.5877L45.4028 22.5253H45.4367V15.4176H47.0991V27.292H45.1823L42.9431 18.6237H42.9092V27.292H41.2467V15.4176ZM53.6297 26.0028C53.6297 25.1546 53.7655 24.4308 54.0369 23.8315C54.3083 23.2208 54.7946 22.5479 55.4957 21.8128C56.1856 21.0777 56.6606 20.4501 56.9207 19.9299C57.1921 19.4096 57.3278 18.8668 57.3278 18.3014C57.3278 17.7925 57.243 17.4419 57.0733 17.2496C56.915 17.0461 56.6775 16.9443 56.3609 16.9443C55.7163 16.9443 55.394 17.3344 55.394 18.1148V19.387H53.6297V18.2335C53.6297 17.2722 53.8672 16.5372 54.3422 16.0283C54.8172 15.508 55.507 15.2479 56.4118 15.2479C57.3165 15.2479 58.0063 15.508 58.4813 16.0283C58.9563 16.5372 59.1938 17.2722 59.1938 18.2335C59.1938 18.9573 59.0185 19.6641 58.6679 20.3539C58.3286 21.0438 57.7349 21.8354 56.8867 22.7288C56.3326 23.3169 55.9594 23.7975 55.7671 24.1707C55.5749 24.5326 55.4788 24.9228 55.4788 25.3412V25.5957H59.0241V27.292H53.6297V26.0028ZM64.3833 27.4616C63.4673 27.4616 62.7661 27.2015 62.2798 26.6813C61.7936 26.1611 61.5504 25.426 61.5504 24.4761V18.2335C61.5504 17.2836 61.7936 16.5485 62.2798 16.0283C62.7661 15.508 63.4673 15.2479 64.3833 15.2479C65.2993 15.2479 66.0005 15.508 66.4868 16.0283C66.9731 16.5485 67.2162 17.2836 67.2162 18.2335V24.4761C67.2162 25.426 66.9731 26.1611 66.4868 26.6813C66.0005 27.2015 65.2993 27.4616 64.3833 27.4616ZM64.3833 25.7653C65.0279 25.7653 65.3502 25.3751 65.3502 24.5948V18.1148C65.3502 17.3344 65.0279 16.9443 64.3833 16.9443C63.7387 16.9443 63.4164 17.3344 63.4164 18.1148V24.5948C63.4164 25.3751 63.7387 25.7653 64.3833 25.7653ZM69.6746 26.0028C69.6746 25.1546 69.8103 24.4308 70.0817 23.8315C70.3532 23.2208 70.8395 22.5479 71.5406 21.8128C72.2305 21.0777 72.7054 20.4501 72.9655 19.9299C73.237 19.4096 73.3727 18.8668 73.3727 18.3014C73.3727 17.7925 73.2878 17.4419 73.1182 17.2496C72.9599 17.0461 72.7224 16.9443 72.4057 16.9443C71.7611 16.9443 71.4388 17.3344 71.4388 18.1148V19.387H69.6746V18.2335C69.6746 17.2722 69.9121 16.5372 70.3871 16.0283C70.8621 15.508 71.5519 15.2479 72.4566 15.2479C73.3614 15.2479 74.0512 15.508 74.5262 16.0283C75.0012 16.5372 75.2386 17.2722 75.2386 18.2335C75.2386 18.9573 75.0634 19.6641 74.7128 20.3539C74.3735 21.0438 73.7798 21.8354 72.9316 22.7288C72.3775 23.3169 72.0043 23.7975 71.812 24.1707C71.6198 24.5326 71.5236 24.9228 71.5236 25.3412V25.5957H75.069V27.292H69.6746V26.0028ZM80.4791 27.4616C79.563 27.4616 78.8619 27.2015 78.3756 26.6813C77.8893 26.1611 77.6462 25.426 77.6462 24.4761V18.3353C77.6462 16.2771 78.5961 15.2479 80.496 15.2479C81.4008 15.2479 82.0906 15.508 82.5656 16.0283C83.0406 16.5372 83.278 17.2722 83.278 18.2335V18.454H81.5138V18.1148C81.5138 17.3344 81.1915 16.9443 80.5469 16.9443C80.1963 16.9443 79.9362 17.0517 79.7666 17.2666C79.597 17.4815 79.5122 17.8603 79.5122 18.4031V20.6762H79.5461C79.874 19.9864 80.4395 19.6415 81.2424 19.6415C81.921 19.6415 82.4355 19.8733 82.7861 20.337C83.1367 20.8006 83.312 21.4735 83.312 22.3556V24.4761C83.312 25.426 83.0688 26.1611 82.5825 26.6813C82.0963 27.2015 81.3951 27.4616 80.4791 27.4616ZM80.4791 25.7653C81.1237 25.7653 81.446 25.3808 81.446 24.6118V22.5083C81.446 21.728 81.1237 21.3378 80.4791 21.3378C79.8345 21.3378 79.5122 21.728 79.5122 22.5083V24.6118C79.5122 25.3808 79.8345 25.7653 80.4791 25.7653Z" fill="black"/>
</svg>
