<svg width="164" height="50" viewBox="0 0 164 50" fill="none" xmlns="http://www.w3.org/2000/svg">
<mask id="path-1-inside-1_150_30" fill="white">
<path d="M0 24.6469C0 11.0348 11.0348 0 24.6469 0H138.639C152.251 0 163.286 11.0348 163.286 24.6469V24.6469C163.286 38.259 152.251 49.2938 138.639 49.2938H24.6469C11.0348 49.2938 0 38.259 0 24.6469V24.6469Z"/>
</mask>
<path d="M0 24.6469C0 11.0348 11.0348 0 24.6469 0H138.639C152.251 0 163.286 11.0348 163.286 24.6469V24.6469C163.286 38.259 152.251 49.2938 138.639 49.2938H24.6469C11.0348 49.2938 0 38.259 0 24.6469V24.6469Z" fill="#826DEE"/>
<path d="M0 24.6469M163.286 24.6469M163.286 24.6469M0 24.6469M24.6469 0V2.31065H138.639V0V-2.31065H24.6469V0ZM163.286 24.6469M138.639 49.2938V46.9831H24.6469V49.2938V51.6044H138.639V49.2938ZM0 24.6469M24.6469 49.2938V46.9831C12.3109 46.9831 2.31065 36.9829 2.31065 24.6469H0H-2.31065C-2.31065 39.5351 9.75866 51.6044 24.6469 51.6044V49.2938ZM163.286 24.6469H160.975C160.975 36.9829 150.975 46.9831 138.639 46.9831V49.2938V51.6044C153.527 51.6044 165.596 39.5351 165.596 24.6469H163.286ZM138.639 0V2.31065C150.975 2.31065 160.975 12.3109 160.975 24.6469H163.286H165.596C165.596 9.75865 153.527 -2.31065 138.639 -2.31065V0ZM24.6469 0V-2.31065C9.75866 -2.31065 -2.31065 9.75865 -2.31065 24.6469H0H2.31065C2.31065 12.3109 12.3109 2.31065 24.6469 2.31065V0Z" fill="#1C1C1C" mask="url(#path-1-inside-1_150_30)"/>
<path d="M27.7154 17.4549H30.71C31.7205 17.4549 32.4784 17.726 32.9837 18.2682C33.4889 18.8104 33.7416 19.6053 33.7416 20.6528V21.9283C33.7416 22.9758 33.4889 23.7706 32.9837 24.3129C32.4784 24.8551 31.7205 25.1262 30.71 25.1262H29.7488V30.3945H27.7154V17.4549ZM30.71 23.2777C31.0427 23.2777 31.2892 23.1853 31.4494 23.0004C31.6219 22.8156 31.7082 22.5013 31.7082 22.0577V20.5234C31.7082 20.0798 31.6219 19.7655 31.4494 19.5807C31.2892 19.3958 31.0427 19.3034 30.71 19.3034H29.7488V23.2777H30.71ZM37.1081 17.4549H39.8624L41.9697 30.3945H39.9363L39.5666 27.825V27.862H37.256L36.8863 30.3945H35.0008L37.1081 17.4549ZM39.3263 26.1059L38.4205 19.7101H38.3836L37.4963 26.1059H39.3263ZM44.297 17.4549H47.3101C48.3575 17.4549 49.1216 17.7013 49.6022 18.1943C50.0828 18.6749 50.3231 19.4205 50.3231 20.431V21.2258C50.3231 22.5691 49.8795 23.4194 48.9922 23.7768V23.8138C49.4851 23.9616 49.8302 24.2636 50.0274 24.7195C50.2369 25.1755 50.3416 25.7855 50.3416 26.5496V28.8232C50.3416 29.1929 50.3539 29.4949 50.3786 29.729C50.4032 29.9508 50.4649 30.1727 50.5634 30.3945H48.4931C48.4192 30.185 48.3699 29.9878 48.3452 29.803C48.3206 29.6181 48.3083 29.2854 48.3083 28.8048V26.4387C48.3083 25.8471 48.2097 25.4343 48.0125 25.2002C47.8276 24.966 47.5011 24.8489 47.0328 24.8489H46.3303V30.3945H44.297V17.4549ZM47.0697 23.0004C47.4764 23.0004 47.7783 22.8957 47.9755 22.6862C48.185 22.4767 48.2898 22.1255 48.2898 21.6325V20.6343C48.2898 20.166 48.2035 19.8271 48.031 19.6176C47.8708 19.4081 47.612 19.3034 47.2546 19.3034H46.3303V23.0004H47.0697ZM54.6644 17.4549H57.4187L59.526 30.3945H57.4927L57.123 27.825V27.862H54.8123L54.4426 30.3945H52.5571L54.6644 17.4549ZM56.8827 26.1059L55.9769 19.7101H55.9399L55.0526 26.1059H56.8827ZM69.0198 30.5793C68.0463 30.5793 67.3007 30.3021 66.7831 29.7475C66.2779 29.1929 66.0252 28.4104 66.0252 27.3999V20.4495C66.0252 19.4389 66.2779 18.6564 66.7831 18.1018C67.3007 17.5473 68.0463 17.27 69.0198 17.27C69.9934 17.27 70.7328 17.5473 71.2381 18.1018C71.7556 18.6564 72.0144 19.4389 72.0144 20.4495V21.8174H70.092V20.3201C70.092 19.519 69.7531 19.1185 69.0753 19.1185C68.3975 19.1185 68.0586 19.519 68.0586 20.3201V27.5478C68.0586 28.3365 68.3975 28.7308 69.0753 28.7308C69.7531 28.7308 70.092 28.3365 70.092 27.5478V25.5699H72.0144V27.3999C72.0144 28.4104 71.7556 29.1929 71.2381 29.7475C70.7328 30.3021 69.9934 30.5793 69.0198 30.5793ZM74.5718 17.4549H77.5849C78.6324 17.4549 79.3964 17.7013 79.877 18.1943C80.3576 18.6749 80.598 19.4205 80.598 20.431V21.2258C80.598 22.5691 80.1543 23.4194 79.267 23.7768V23.8138C79.76 23.9616 80.105 24.2636 80.3022 24.7195C80.5117 25.1755 80.6164 25.7855 80.6164 26.5496V28.8232C80.6164 29.1929 80.6288 29.4949 80.6534 29.729C80.6781 29.9508 80.7397 30.1727 80.8383 30.3945H78.7679C78.694 30.185 78.6447 29.9878 78.62 29.803C78.5954 29.6181 78.5831 29.2854 78.5831 28.8048V26.4387C78.5831 25.8471 78.4845 25.4343 78.2873 25.2002C78.1025 24.966 77.7759 24.8489 77.3076 24.8489H76.6052V30.3945H74.5718V17.4549ZM77.3446 23.0004C77.7512 23.0004 78.0532 22.8957 78.2503 22.6862C78.4598 22.4767 78.5646 22.1255 78.5646 21.6325V20.6343C78.5646 20.166 78.4783 19.8271 78.3058 19.6176C78.1456 19.4081 77.8868 19.3034 77.5294 19.3034H76.6052V23.0004H77.3446ZM83.368 17.4549H88.9136V19.3034H85.4014V22.7231H88.1927V24.5717H85.4014V28.546H88.9136V30.3945H83.368V17.4549ZM92.9954 17.4549H95.7497L97.857 30.3945H95.8236L95.4539 27.825V27.862H93.1432L92.7735 30.3945H90.8881L92.9954 17.4549ZM95.2136 26.1059L94.3078 19.7101H94.2708L93.3836 26.1059H95.2136ZM100.926 19.3034H98.7997V17.4549H105.085V19.3034H102.959V30.3945H100.926V19.3034ZM107.41 17.4549H109.443V30.3945H107.41V17.4549ZM111.771 17.4549H113.823L115.154 27.4923H115.191L116.522 17.4549H118.389L116.429 30.3945H113.73L111.771 17.4549ZM122.499 23.7768L120.262 17.4549H122.407L123.775 21.6325H123.812L125.216 17.4549H127.139L124.902 23.7768L127.25 30.3945H125.106L123.627 25.8841H123.59L122.074 30.3945H120.152L122.499 23.7768ZM132.092 30.5793C131.106 30.5793 130.36 30.3021 129.855 29.7475C129.35 29.1806 129.097 28.3734 129.097 27.3259V26.5865H131.019V27.4738C131.019 28.3118 131.371 28.7308 132.073 28.7308C132.418 28.7308 132.677 28.6322 132.849 28.4351C133.034 28.2256 133.127 27.8928 133.127 27.4369C133.127 26.8946 133.003 26.4202 132.757 26.0135C132.511 25.5945 132.055 25.0954 131.389 24.5162C130.551 23.7768 129.966 23.1113 129.633 22.5198C129.3 21.916 129.134 21.2382 129.134 20.4864C129.134 19.4636 129.393 18.6749 129.91 18.1203C130.428 17.5535 131.18 17.27 132.165 17.27C133.139 17.27 133.872 17.5535 134.365 18.1203C134.87 18.6749 135.123 19.4759 135.123 20.5234V21.0595H133.201V20.394C133.201 19.9504 133.114 19.63 132.942 19.4328C132.769 19.2233 132.517 19.1185 132.184 19.1185C131.506 19.1185 131.167 19.5314 131.167 20.357C131.167 20.8253 131.291 21.2628 131.537 21.6695C131.796 22.0762 132.258 22.5691 132.923 23.1483C133.774 23.8877 134.359 24.5593 134.679 25.1632C135 25.767 135.16 26.4756 135.16 27.289C135.16 28.3488 134.895 29.1621 134.365 29.729C133.848 30.2959 133.09 30.5793 132.092 30.5793Z" fill="#D8F382"/>
</svg>
