<svg width="125" height="164" viewBox="0 0 125 164" fill="none" xmlns="http://www.w3.org/2000/svg">
<path d="M23.5803 148.775C21.2272 148.266 19.3809 146.507 18.6419 144.068C17.9481 141.782 18.8739 139.475 21.3591 134.842C21.5083 134.567 21.628 134.342 21.6998 134.201L27.0564 123.627L42.2129 93.9413C41.2327 93.7249 40.1971 93.4989 39.0951 93.2608C37.2622 92.8647 35.4279 92.4753 33.5936 92.0858C31.7505 91.6945 29.9074 91.3031 28.0679 90.9057L26.955 90.6652C26.2723 90.5177 25.441 90.3564 24.5604 90.1891C23.5235 89.9904 22.4514 89.784 21.4022 89.5573C19.9227 89.2376 18.8163 88.9457 17.9181 88.6368C16.5046 88.1498 15.3686 87.2932 14.5321 86.0924C13.5539 84.6863 13.189 82.9509 13.5066 81.2044C13.741 79.9179 13.8597 79.2726 24.0396 63.8039C24.8096 62.633 25.4185 61.7077 25.7149 61.2502L47.3124 27.6898C48.803 25.3742 50.312 23.0052 51.7691 20.7169C53.8912 17.3821 56.0881 13.9349 58.2862 10.5568C60.8375 6.63926 64.5261 7.29382 65.9155 7.54119L65.9967 7.55874L95.4271 13.9247C95.4271 13.9247 106.64 16.3338 107.018 16.4153C108.157 16.6615 109.503 16.9593 110.85 17.3078C113.595 18.0156 115.542 20.4537 115.696 23.3795C115.752 24.4508 115.563 26.0781 114.34 27.7643C113.433 29.0137 112.483 30.2099 111.565 31.367C111.215 31.806 110.866 32.2478 110.521 32.6878L103.309 41.9188L84.6627 65.7641L97.1803 68.4734C98.0913 68.6703 99.0076 68.8636 99.9265 69.0553C100.878 69.2563 101.832 69.4556 102.783 69.6609C104.486 70.029 105.872 70.3468 107.145 70.6611C109.501 71.2414 111.329 73.0883 111.914 75.4847C112.498 77.8762 111.717 80.3635 109.877 81.9785C108.104 83.5348 106.282 85.0021 104.521 86.4207L103.575 87.1857L92.2115 96.3929L52.9462 128.25L38.3166 140.11C37.3391 140.912 36.3641 141.703 35.3885 142.496C33.7443 143.832 32.0466 145.214 30.3502 146.621C28.5066 148.465 25.9435 149.29 23.5772 148.779L23.5803 148.775Z" fill="white"/>
<path d="M65.1309 11.9599L94.4791 18.3127L103.991 20.3564C105.907 20.7704 107.832 21.1635 109.732 21.6544C110.646 21.8909 111.165 22.6992 111.214 23.6127C111.243 24.1774 111.033 24.6697 110.706 25.1205C109.521 26.7554 108.231 28.3239 106.987 29.916L99.7733 39.1514L76.7176 68.6357L96.235 72.8597C99.5122 73.5678 102.825 74.2192 106.075 75.0181C107.611 75.3959 108.195 77.4796 106.919 78.6008C104.909 80.363 102.832 82.0119 100.755 83.6907L89.3869 92.8991L50.1189 124.758L35.4813 136.623C32.7564 138.856 30.0636 141.015 27.2931 143.321C25.9365 144.803 23.6124 144.979 22.94 142.764C22.6236 141.719 25.2022 137.228 25.7102 136.217L31.0622 125.653L48.8354 90.8437C41.9085 89.2046 34.9116 87.7938 27.9551 86.2815C25.5019 85.7469 21.5734 85.1393 19.3764 84.3866C18.887 84.2165 18.5162 83.9549 18.2185 83.5252C17.9065 83.0764 17.8276 82.5378 17.926 82.0077C18.1585 80.7299 27.9005 66.1499 29.4913 63.6791L51.0892 30.1164C54.755 24.4224 58.3532 18.6794 62.0495 13.0035C62.9125 11.6782 63.7634 11.7173 65.1287 11.9594L65.1309 11.9599Z" fill="black"/>
<path d="M65.0303 16.253C78.3381 19.3146 92.0014 22.0807 105.367 24.9801C104.491 26.2291 103.243 27.7172 102.283 28.9388L97.0415 35.6846L78.8309 58.9508L73.4591 65.8201C72.8252 66.6275 71.0832 68.5326 70.8753 69.3883C70.7182 70.0413 70.8525 70.7275 71.2348 71.2765C71.9186 72.2375 80.2772 73.7472 81.9916 74.1176L100.788 78.1561C95.8159 82.3914 90.002 86.9044 84.8694 91.0614L54.1084 116.002L31.3879 134.418L48.1209 101.679L52.0413 94.0086C52.7156 92.6954 53.5547 91.2362 54.0383 89.8702C54.3905 88.878 53.5887 87.634 52.5837 87.3618C51.4231 87.0444 50.3194 86.8036 49.1516 86.5513L43.2008 85.2654L23.4546 80.9943C24.8747 78.6222 26.4722 76.2585 27.9766 73.9321L34.5831 63.6558L52.8949 35.1684C56.8967 28.9611 61.1506 22.5119 65.0296 16.246L65.0303 16.253Z" fill="#D8F382"/>
</svg>
