<svg width="165" height="165" viewBox="0 0 165 165" fill="none" xmlns="http://www.w3.org/2000/svg">
<path d="M115.557 130.651C112.26 132.925 108.121 132.939 105.015 130.682L76.8953 110.265L43.9609 119.261C40.0104 120.341 36.1107 119.08 33.7828 115.971C31.2055 112.529 31.1424 108.1 33.6233 104.688L53.8482 76.8744L44.8349 43.8392C43.8088 40.0803 45.1029 36.1489 48.1275 33.8276C48.2569 33.7297 48.3896 33.6323 48.5251 33.5389C51.8557 31.2412 56.2382 31.2536 59.4246 33.5713L87.3255 53.8518L120.748 44.7569C125.087 43.5768 129.194 46.0618 131.007 49.1269C132.95 52.4096 132.73 56.4112 130.434 59.5708L110.322 87.2402L119.274 120.149C120.336 124.052 119.141 127.834 116.078 130.263C115.911 130.395 115.735 130.525 115.554 130.65L115.557 130.651Z" fill="white"/>
<path d="M112.375 122.027C112.7 123.222 112.448 124.015 111.636 124.66C111.136 125.057 110.113 125.543 109.219 124.893L78.3241 102.461L42.078 112.362C40.9737 112.664 40.0712 112.435 39.511 111.686C38.9508 110.937 38.6933 109.883 39.4111 108.896L61.6541 78.3053L51.7349 41.9583C51.4491 40.9099 51.8609 39.9827 52.4836 39.5039C53.186 38.9643 54.3142 38.7016 55.2188 39.3579L85.8966 61.6564L122.628 51.6603C123.581 51.3998 124.539 52.2391 124.856 52.7737C125.32 53.56 125.335 54.4249 124.651 55.3657L102.521 85.8086L112.375 122.027Z" fill="white" stroke="black" stroke-width="0.238437" stroke-miterlimit="10"/>
<path d="M125.68 51.9822L85.6486 62.8965L52.0047 38.4903L62.8664 78.5003L38.5921 112.033L78.584 101.242L112.165 125.628L101.314 85.5031L125.107 52.8094L125.68 51.9822Z" fill="#826DEE" stroke="black" stroke-width="4.76874" stroke-linecap="round" stroke-linejoin="round"/>
</svg>
