<svg width="143" height="143" viewBox="0 0 143 143" fill="none" xmlns="http://www.w3.org/2000/svg">
<rect x="31.5336" y="6.039" width="108" height="108" rx="54" transform="rotate(13.6542 31.5336 6.039)" fill="#826DEE" stroke="white" stroke-width="10"/>
<rect x="32.3266" y="8.4156" width="104" height="104" rx="52" transform="rotate(13.6542 32.3266 8.4156)" fill="#FF99DC" stroke="#1C1C1C" stroke-width="4"/>
<path d="M61.0022 64.1023C59.4838 63.7334 58.4334 63.0316 57.851 61.9968C57.2874 60.9665 57.1968 59.664 57.5793 58.0894L57.9687 56.4866L60.893 57.197L60.4695 58.9404C60.1553 60.2339 60.5324 61.0104 61.6009 61.2699C62.1258 61.3974 62.5582 61.3337 62.8981 61.0788C63.2612 60.8097 63.543 60.2627 63.7433 59.4379L64.1327 57.8352C64.3513 56.9354 64.3468 56.2593 64.1192 55.807C63.8961 55.3359 63.4284 55.0138 62.7161 54.8408L61.6757 54.588L62.3588 51.7762L63.4835 52.0494C64.1021 52.1997 64.6001 52.1519 64.9775 51.9061C65.3736 51.6648 65.6627 51.1693 65.8448 50.4195L66.1932 48.9854C66.3571 48.3106 66.3372 47.7796 66.1335 47.3927C65.9297 47.0057 65.5935 46.7553 65.1248 46.6414C64.1313 46.4001 63.4865 46.8886 63.1905 48.1071L62.8763 49.4006L59.952 48.6901L60.2047 47.6498C60.5872 46.0751 61.2653 44.9594 62.2388 44.3025C63.231 43.6502 64.4582 43.5017 65.9204 43.8569C67.4013 44.2166 68.4236 44.9116 68.9872 45.9419C69.5554 46.9534 69.6483 48.2465 69.2658 49.8212L69.095 50.5241C68.8354 51.5926 68.4479 52.4117 67.9323 52.9812C67.4213 53.5321 66.7567 53.857 65.9386 53.956L65.9249 54.0123C66.6581 54.508 67.1209 55.1366 67.3131 55.898C67.5053 56.6593 67.4739 57.5649 67.2189 58.6147L66.7954 60.358C66.4129 61.9327 65.7255 63.0461 64.7333 63.6984C63.7643 64.3365 62.5206 64.4712 61.0022 64.1023ZM69.2297 62.6467L72.2103 63.3708L71.4863 66.3514L68.5057 65.6273L69.2297 62.6467ZM78.8274 68.4325C77.3277 68.0682 76.2867 67.3686 75.7043 66.3338C75.1265 65.2803 75.0311 63.9568 75.4182 62.3634L75.7939 60.8169L78.7182 61.5273L78.2879 63.2987C77.9782 64.5734 78.3576 65.3406 79.4261 65.6002C80.4946 65.8597 81.1837 65.3522 81.4934 64.0774L82.5658 59.6628C82.88 58.3694 82.5029 57.5928 81.4344 57.3333C80.3659 57.0737 79.6745 57.5907 79.3603 58.8841L79.3193 59.0528L76.395 58.3424L79.6282 47.4846L87.7826 49.4656L87.0995 52.2774L81.7007 50.9659L80.3069 55.6003L80.3632 55.6139C81.1765 54.7991 82.1831 54.5374 83.3828 54.8288C84.5075 55.102 85.2671 55.6935 85.6615 56.6033C86.0559 57.513 86.0755 58.699 85.7203 60.1611L84.6411 64.6039C84.254 66.1973 83.5621 67.3295 82.5653 68.0005C81.573 68.6528 80.3271 68.7968 78.8274 68.4325ZM43.1701 65.3842L46.2631 66.1356L44.3164 74.1494L47.6344 74.9554L49.5811 66.9416L52.6742 67.693L47.8926 87.376L44.7996 86.6246L46.9513 77.7673L43.6333 76.9612L41.4816 85.8186L38.3885 85.0672L43.1701 65.3842ZM55.1619 89.4397C53.6435 89.0709 52.586 88.3574 51.9894 87.2992C51.3929 86.2411 51.2858 84.9247 51.6683 83.3501L54.1821 73.0024C54.5646 71.4278 55.2636 70.3072 56.2792 69.6407C57.2947 68.9742 58.5617 68.8254 60.0801 69.1943C61.5985 69.5632 62.656 70.2766 63.2526 71.3348C63.8492 72.3929 63.9562 73.7093 63.5737 75.2839L61.06 85.6316C60.6775 87.2062 59.9784 88.3268 58.9629 88.9933C57.9473 89.6598 56.6804 89.8086 55.1619 89.4397ZM55.845 86.6278C56.9135 86.8874 57.6049 86.3705 57.9191 85.077L60.5285 74.3357C60.8427 73.0422 60.4655 72.2657 59.397 72.0062C58.3285 71.7466 57.6372 72.2635 57.3229 73.557L54.7136 84.2983C54.3994 85.5918 54.7765 86.3683 55.845 86.6278ZM67.3626 71.2612L71.9459 72.3746C73.5393 72.7617 74.6105 73.4189 75.1594 74.3464C75.7129 75.255 75.8029 76.478 75.4295 78.0151L75.1358 79.2242C74.6394 81.2675 73.6504 82.397 72.1686 82.6128L72.1549 82.669C72.8501 83.0761 73.2634 83.6629 73.3949 84.4294C73.5451 85.2004 73.479 86.167 73.1967 87.3292L72.3565 90.7878C72.2198 91.3502 72.127 91.814 72.078 92.1793C72.0335 92.5258 72.0453 92.886 72.1133 93.2599L68.964 92.4948C68.9289 92.1488 68.9268 91.8307 68.9576 91.5404C68.9884 91.2501 69.0926 90.7394 69.2702 90.0083L70.1446 86.4091C70.3632 85.5093 70.3658 84.8449 70.1523 84.4159C69.9577 83.9914 69.5042 83.6926 68.7918 83.5196L67.7233 83.26L65.6741 91.6956L62.5811 90.9442L67.3626 71.2612ZM69.5312 80.7214C70.1498 80.8717 70.6477 80.8239 71.0251 80.5781C71.4212 80.3368 71.7103 79.8413 71.8925 79.0914L72.2613 77.573C72.4344 76.8607 72.4284 76.3133 72.2434 75.9309C72.0771 75.553 71.7221 75.298 71.1785 75.166L69.7726 74.8244L68.4064 80.4482L69.5312 80.7214ZM81.6567 74.7336L85.8464 75.7514L84.2704 96.2132L81.1773 95.4618L81.5644 91.4167L81.5508 91.4729L78.0359 90.6191L76.5378 94.3347L73.6696 93.638L81.6567 74.7336ZM81.8342 88.7128L82.8198 78.6491L82.7636 78.6354L79.0504 88.0366L81.8342 88.7128ZM90.2045 97.9525C88.7048 97.5882 87.6732 96.8909 87.1095 95.8606C86.5504 94.8116 86.4644 93.4904 86.8515 91.897L87.1247 90.7723L90.0491 91.4827L89.7212 92.8324C89.4115 94.1071 89.7909 94.8742 90.8595 95.1338C91.3843 95.2613 91.8144 95.207 92.1497 94.9708C92.5083 94.7204 92.7719 94.2484 92.9404 93.5548C93.1407 92.73 93.1286 91.9628 92.904 91.2531C92.6839 90.5247 92.1747 89.597 91.3765 88.47C90.375 87.0356 89.7305 85.807 89.4429 84.7843C89.1599 83.7428 89.1573 82.6503 89.4351 81.5068C89.8131 79.9509 90.4982 78.8468 91.4904 78.1945C92.4872 77.5235 93.7355 77.3701 95.2351 77.7344C96.716 78.0941 97.7267 78.7963 98.267 79.8407C98.8307 80.871 98.919 82.1828 98.5319 83.7762L98.3338 84.5916L95.4095 83.8812L95.6554 82.869C95.8193 82.1941 95.8065 81.6749 95.6169 81.3112C95.4319 80.9287 95.0863 80.676 94.5802 80.5531C93.5492 80.3026 92.8811 80.8054 92.576 82.0613C92.4029 82.7737 92.4287 83.4847 92.6534 84.1944C92.8968 84.9086 93.4176 85.8292 94.2158 86.9562C95.236 88.3951 95.8783 89.6331 96.1425 90.67C96.4068 91.707 96.3886 92.8441 96.0881 94.0813C95.6964 95.6934 94.9929 96.8327 93.9773 97.4992C92.9805 98.1703 91.7229 98.3214 90.2045 97.9525Z" fill="#1C1C1C"/>
</svg>
