<svg width="117" height="108" viewBox="0 0 117 108" fill="none" xmlns="http://www.w3.org/2000/svg">
<path d="M52.0905 104.656C54.1937 106.89 56.5356 108.312 59.4504 107.905C61.5209 107.616 63.119 106.616 64.6065 105.033L107.052 59.8659C112.917 53.6267 116.425 45.6814 116.937 37.2009C117.771 23.3857 110.243 10.2089 97.8528 3.90186C85.4624 -2.40515 70.1899 -0.945244 59.0408 7.52022C58.8724 7.64837 58.6513 7.56294 58.4352 7.83432C51.1608 2.16303 42.2857 -0.500485 33.1619 0.0774482C15.5425 1.19311 1.32787 15.1992 0.0639518 32.7583C-0.0466094 34.2886 0.00113171 35.7585 0.0941036 37.3416C0.619269 46.1161 4.4688 54.0916 10.517 60.5117L52.0905 104.653V104.656Z" fill="white"/>
<path d="M31.926 9.03296C39.7274 8.27323 46.7824 11.7363 52.812 16.3753L58.4683 20.7296C58.514 20.7645 58.5569 20.7994 58.6026 20.8316L64.2053 16.4477C70.8684 11.1806 78.9086 7.76048 87.365 9.31753C91.7301 10.1229 95.7328 11.7981 99.2362 14.6464C105.352 19.6182 108.842 27.4732 108.31 35.3524C107.862 41.9994 104.815 47.892 100.278 52.7135L65.3086 89.8894L58.4925 96.9552L52.2482 90.3968L15.4186 51.1672C10.8817 46.335 8.03609 38.292 8.75555 31.5726C9.4079 25.4813 12.2133 19.6263 16.8791 15.5135C21.1421 11.7578 26.4629 9.56719 31.926 9.03565V9.03296Z" fill="#FF99DC" stroke="black" stroke-width="5.36913" stroke-miterlimit="10"/>
</svg>
