<svg width="154" height="153" viewBox="0 0 154 153" fill="none" xmlns="http://www.w3.org/2000/svg">
<path d="M75.2288 0.027486C83.35 -0.454905 84.1334 5.48982 85.4731 11.761C86.0676 14.5458 86.8202 17.4156 87.4942 20.1837C88.2047 23.0955 88.7292 26.2221 89.564 29.0864C90.6316 28.0452 92.0311 26.4794 93.1025 25.3599L102.311 15.7253C103.598 14.3921 106.299 11.4552 107.686 10.4825C108.772 9.7228 110.04 9.26565 111.36 9.15814C116.281 8.75101 120.333 13.2011 119.772 17.9573C119.604 19.3799 118.529 22.2345 118.05 23.725L113.59 37.498C113.43 37.9865 112.291 41.4454 112.312 41.7471C112.844 41.8523 116.185 40.7397 116.91 40.5252L126.931 37.6573L131.802 36.2453C135.577 35.1458 139.105 33.9268 142.438 36.9591C143.985 38.3718 144.913 40.3387 145.018 42.4318C145.24 47.0736 141.966 49.1557 138.795 51.8883L129.968 59.5978C128.925 60.5049 126.115 62.8097 125.3 63.7114C125.768 64.2658 145.449 68.1374 147.969 69.1269C149.07 69.5591 150.275 70.253 151.02 71.1874C152.582 73.1434 153.312 75.408 152.947 77.9097C152.647 79.9618 151.086 82.1353 149.335 83.202C147.303 84.4379 143.02 85.0905 140.597 85.6486L128.658 88.3597C128.311 88.4401 125.36 89.0842 125.314 89.1188C125.498 90.2107 141.728 103.656 143.201 106.261C145.371 110.101 144.46 114.421 140.856 116.979C137.56 119.319 133.898 117.865 130.452 116.836L124.737 115.172L113.517 111.858C113.216 111.768 112.072 111.45 111.861 111.557C111.822 111.953 112.559 114.067 112.722 114.657C113.986 119.267 115.307 123.861 116.681 128.439L117.788 132.24C117.962 132.82 118.26 133.541 118.358 134.122C118.765 136.523 118.441 138.501 117.121 140.52C114.952 143.836 110.116 144.878 106.738 142.973C104.629 141.784 102.477 138.889 100.807 137.083L93.0586 128.661C92.2966 127.83 90.3437 125.619 89.5706 125.064C89.249 125.365 86.2172 139.115 85.7488 140.725C84.1109 146.348 84.8654 151.011 77.9502 152.894C74.3509 152.996 71.9016 152.494 69.7513 149.224C68.5857 147.452 68.544 145.64 68.0454 143.656L65.1478 131.883C64.9507 131.064 63.8546 125.448 63.5242 125.008C63.15 125.101 53.4655 135.866 52.517 136.839C51.1261 138.266 48.786 141.212 46.9986 142.519C45.8037 143.393 44.5121 143.777 43.0465 143.911C41.053 144.094 38.7433 143.312 37.2458 142.017C35.7801 140.751 34.6848 138.44 34.6262 136.507C34.609 135.941 34.5871 135.059 34.7076 134.499C35.0872 132.735 35.7057 130.955 36.1898 129.211C37.48 124.563 38.9177 119.942 40.1807 115.287C40.3872 114.526 41.2106 112.112 41.1768 111.522L41.0535 111.46C40.5865 111.701 38.331 112.249 37.672 112.451C33.424 113.728 29.1672 114.976 24.9019 116.194C21.9913 117.047 18.1373 118.619 15.1516 118.113C11.7637 117.54 9.18269 114.874 8.75004 111.442C8.15116 106.69 11.4211 104.366 14.5521 101.51L23.2048 93.5183C24.2633 92.5479 26.9446 90.2668 27.7802 89.23C27.4176 88.7402 7.08495 84.7446 4.67561 83.6975C2.73669 82.8552 1.27877 81.2407 0.51629 79.2775C-0.228144 77.3067 -0.165414 75.1229 0.690737 73.198C2.57982 69.054 6.19607 68.733 10.1555 67.8445L22.6447 65.0147C23.6752 64.775 26.7771 64.1465 27.6257 63.8335C27.6494 63.7917 27.6731 63.7497 27.697 63.7077C27.2692 63.1851 25.7302 61.9078 25.3157 61.5468C22.197 58.8298 19.1699 56.1894 16.0725 53.4406C13.8722 51.4881 11.0964 49.4282 9.24496 47.1556C8.62018 46.1318 8.21062 44.9261 8.06768 43.7364C7.82844 41.7445 8.39479 39.4439 9.68266 37.8805C10.7923 36.5334 12.8287 35.309 14.5772 35.1082C15.4805 35.0044 16.5693 35.0271 17.4727 35.157C19.3955 35.6367 21.3939 36.2695 23.3019 36.8171L36.6737 40.7134C37.2774 40.8876 40.273 41.8043 40.6603 41.7612C40.692 41.2229 40.3165 40.2446 40.1391 39.7145C38.1367 33.7277 36.313 27.6847 34.3189 21.6961C33.9899 20.7081 33.6138 19.6761 33.4162 18.6603C33.2249 17.664 33.2082 16.6421 33.3668 15.6401C33.7104 13.6432 34.8159 11.8577 36.4501 10.6599C39.5123 8.46101 43.6812 8.62265 46.4062 11.2809C48.6389 13.4589 50.7724 15.7548 52.9044 18.0312C55.6422 20.9337 58.405 23.8124 61.1925 26.6671C61.6113 27.1024 63.1088 28.8785 63.4612 28.9371C63.6751 28.5226 64.4558 24.9716 64.6247 24.241C65.4711 20.4449 66.3578 16.6578 67.2847 12.8805C67.5637 11.6997 67.8674 10.4329 68.1085 9.25424C69.1019 4.39901 70.0514 1.3549 75.2288 0.027486Z" fill="#F5F0E4"/>
<path d="M76.2889 5.25635C77.7249 5.29422 78.6177 5.94629 78.9842 7.34176C79.3516 8.7392 79.6498 10.1486 79.9751 11.556L81.9514 20.0251L84.6803 31.6118C85.3113 34.2653 86.0667 37.221 86.5669 39.892C92.2406 33.8532 97.9573 27.8556 103.718 21.8999L108.069 17.3666C109.254 16.1354 110.614 14.1458 112.489 14.6017C113.186 14.7777 113.782 15.2317 114.135 15.858C114.898 17.2373 113.707 19.8456 113.236 21.2847L111.303 27.2484L104.069 49.8481C107.109 48.8764 110.313 47.9984 113.382 47.1171L127.063 43.1736L133.408 41.329C135.049 40.8547 137.544 39.7256 138.928 41.0713C139.409 41.5453 139.682 42.1912 139.687 42.8667C139.693 43.45 139.481 44.0143 139.092 44.4492C138.487 45.1361 137.418 46.0169 136.694 46.6451L132.74 50.08L119.966 61.2747C118.115 62.9086 115.615 64.9975 113.89 66.6993C115.921 67.0787 118.24 67.684 120.287 68.1606L131.653 70.8011C133.925 71.3294 145.462 73.7196 146.636 74.4385C147.152 74.7545 147.506 75.2809 147.645 75.8661C147.809 76.5635 147.68 77.2974 147.287 77.8966C146.48 79.125 143.605 79.4635 142.189 79.7813L135.496 81.3052L113.901 86.3039C119.411 91.154 124.777 96.2452 130.213 101.172L135.615 106.114C136.981 107.36 139.419 108.93 138.972 110.989C138.823 111.675 138.39 112.267 137.781 112.616C136.421 113.392 134.332 112.476 132.919 112.048C131.305 111.554 129.688 111.073 128.066 110.607C120.206 108.367 111.866 105.665 104.003 103.604C106.107 111.457 108.618 119.673 110.861 127.534C111.313 129.096 111.773 130.654 112.244 132.21C112.515 133.116 113.084 134.894 113.147 135.77C113.202 136.501 112.948 137.221 112.446 137.756C111.963 138.27 111.288 138.561 110.582 138.556C108.886 138.553 107.635 136.684 106.555 135.504L102.418 130.992L91.9517 119.609C90.2054 117.71 88.4151 115.673 86.6351 113.83C85.8919 116.545 85.2216 119.819 84.569 122.606L80.8754 138.239C80.4313 140.114 80.0135 142.005 79.5413 143.872C79.0384 145.857 79.0842 147.035 76.8658 147.619C73.7009 147.639 73.6685 144.475 73.0997 142.021L71.7774 136.502L68.7695 123.853C68.0294 120.656 67.2642 116.987 66.4238 113.84C61.661 119.073 56.8714 124.281 52.055 129.464C50.655 130.989 44.9268 137.608 43.7251 138.285C43.1631 138.602 42.4874 138.655 41.8717 138.476C41.1638 138.273 40.5668 137.794 40.2138 137.148C39.4766 135.8 40.6225 133.02 41.0603 131.523L43.041 124.661L49.0612 103.579C46.7484 104.116 43.353 105.245 40.9502 105.948L24.2155 110.839C22.2642 111.408 20.3205 112.003 18.3662 112.561C17.0613 112.935 15.8663 113.328 14.7646 112.241C14.2566 111.733 13.9789 111.04 13.9962 110.322C14.0452 108.713 16.2165 107.197 17.3517 106.17L21.6896 102.192L39.1308 86.2889C32.4798 84.9025 25.3473 83.1085 18.6766 81.5744L12.0791 80.058C10.4083 79.6775 7.88025 79.2877 6.36586 78.5445C4.82987 77.79 4.94066 74.7181 6.88209 74.1902C8.19399 73.8333 9.53833 73.5247 10.9038 73.2132L18.2079 71.5425L39.0825 66.6735C37.3106 64.8501 34.0866 62.1832 32.1051 60.4494L19.4739 49.3987C18.4875 48.5389 14.1186 44.8538 13.625 44.048C13.3173 43.5375 13.2253 42.9256 13.3694 42.3472C14.1608 39.0722 18.2537 40.8839 20.3364 41.4901L26.7541 43.3543C34.17 45.4752 41.5752 47.6335 48.9693 49.8292L43.739 33.4359C42.6761 30.2258 41.6369 27.008 40.6213 23.7827C40.0814 22.1156 38.7795 18.6722 38.5713 16.9633C38.3467 15.1209 41.3079 13.518 42.9621 15.3268C43.7236 16.1595 44.9836 17.3808 45.8727 18.3166L50.6208 23.2524C55.9163 28.7668 61.1819 34.3097 66.4174 39.8811C67.621 33.9012 69.1883 27.9559 70.5834 22.0155C71.1236 19.7155 73.7594 7.42459 74.4659 6.3293C74.8857 5.67816 75.5682 5.42388 76.2889 5.25635Z" fill="#2A2B31"/>
<path d="M76.4881 18.0937C76.7386 18.5928 77.6342 22.6295 77.8128 23.397L81.1073 37.5214C81.6345 39.758 82.3198 43.7529 83.4444 45.877C83.9025 46.7417 86.0247 46.9918 86.8679 46.2558C87.7729 45.4659 88.6834 44.5027 89.5706 43.5711L93.5298 39.4313L106.728 25.7287C105.937 27.9378 105.242 30.2443 104.528 32.4855C102.457 38.9972 100.303 45.4902 98.3107 52.0254C97.904 53.3609 98.2742 54.3743 99.4391 55.1508C100.624 55.9407 102.598 55.1066 103.885 54.7534C105.771 54.2319 107.653 53.6953 109.531 53.1437C115.58 51.3865 121.953 49.4402 128.008 47.829C126.326 49.4388 124.43 51.0245 122.682 52.5763L113.58 60.6472C111.902 62.1212 110.262 63.585 108.557 65.0887C107.195 66.225 106.088 67.4211 107.21 69.239C107.93 70.4033 109.84 70.5792 111.122 70.879L116.407 72.1108L135.218 76.4803C133.431 77.0497 129.878 77.7424 127.891 78.1995L115.039 81.2042C113.519 81.5529 108.433 82.4448 107.46 83.4385C106.998 83.9135 106.75 84.5548 106.771 85.2167C106.818 86.6751 108.761 88.0577 109.809 89.0085L113.815 92.6442C118.55 96.9399 123.388 101.28 128.06 105.634C122.515 104.158 116.163 102.257 110.637 100.6C108.588 99.9829 106.534 99.3799 104.475 98.7919C103.382 98.4759 102.302 98.1468 101.195 97.857C99.3951 97.3737 97.8274 98.7975 98.1489 100.64C98.3331 101.696 98.6949 102.747 98.9969 103.776L100.461 108.859C102.233 115.148 104.041 121.427 105.886 127.695C102.254 123.55 98.134 119.222 94.3777 115.147L90.0689 110.466C89.0658 109.369 87.4447 107.311 86.1406 106.669C85.1281 106.17 83.407 107.001 83.0583 108.082C82.762 108.997 82.5329 110.09 82.303 111.077L81.0091 116.637L76.5722 135.208C76.26 134.46 75.527 131.236 75.3111 130.341L71.8338 115.737C71.2767 113.365 70.7728 110.993 70.1632 108.623C69.8729 107.358 69.0008 106.54 67.662 106.538C66.2863 106.536 65.0551 108.282 64.1693 109.245L60.4939 113.238L47.2076 127.658C47.9302 125.513 48.7418 122.488 49.359 120.286L51.8166 111.667L53.7456 104.869C54.1124 103.587 55.0855 100.788 54.845 99.6089C54.7225 98.9788 54.3334 98.4329 53.778 98.1103C52.5135 97.368 50.4893 98.2281 49.1343 98.617L43.2254 100.355L25.0472 105.625C26.755 103.88 29.0516 101.884 30.91 100.198L40.6661 91.3466C41.6399 90.4631 45.8037 86.905 46.153 85.9561C46.3915 85.3223 46.3479 84.6165 46.033 84.0172C45.3419 82.714 43.7789 82.5439 42.4777 82.2335L38.0066 81.1949L25.8756 78.3641C23.3903 77.8032 20.1636 77.1703 17.7677 76.4728C26.4781 74.7798 35.2891 72.2538 43.9754 70.3791C44.4011 70.2302 45.1065 70.0788 45.4218 69.7598C47.7868 67.3673 44.8379 65.4032 43.2965 64.0397L39.4634 60.6633L30.1662 52.3997C28.3849 50.8089 26.7153 49.3875 24.9658 47.7367L42.8062 52.9261C45.2109 53.6213 47.6231 54.3044 50.0267 55.0046C50.7709 55.2213 52.0875 55.6366 52.8389 55.4463C53.5966 55.2569 54.241 54.7602 54.6171 54.0758C55.3019 52.8223 54.3091 50.5936 53.8914 49.2821L52.3406 44.419C50.3223 38.2343 48.3409 32.0375 46.3965 25.8292L59.2987 39.2526L63.4831 43.6118C64.3046 44.4656 65.1084 45.2814 65.9604 46.1086C66.9442 47.2396 69.6021 46.6483 69.9785 45.2283C72.3467 36.2939 74.2556 27.0586 76.4881 18.0937Z" fill="#D8F382"/>
</svg>
